<svg width="26" height="25" viewBox="0 0 26 25" fill="none" xmlns="http://www.w3.org/2000/svg">
<path d="M11.8146 23.9583C11.6935 23.9581 11.5734 23.937 11.4595 23.8958C11.2399 23.8156 11.0537 23.6642 10.9306 23.4659C10.8075 23.2676 10.7547 23.0338 10.7807 22.802L11.5849 15.4166H5.43342C5.24369 15.4169 5.05746 15.3656 4.89474 15.2683C4.73202 15.171 4.59896 15.0313 4.50984 14.8642C4.42072 14.6972 4.37891 14.509 4.38891 14.3201C4.39891 14.1311 4.46033 13.9484 4.56658 13.7916L12.8068 1.49994C12.9371 1.30758 13.1281 1.16416 13.3495 1.09245C13.5709 1.02073 13.8099 1.02484 14.0287 1.10411C14.239 1.18198 14.4186 1.32534 14.5409 1.51295C14.6632 1.70056 14.7216 1.92245 14.7076 2.14577L13.9034 9.58327H20.0548C20.2446 9.58299 20.4308 9.63426 20.5935 9.73158C20.7562 9.8289 20.8893 9.96859 20.9784 10.1357C21.0675 10.3027 21.1093 10.4908 21.0993 10.6798C21.0893 10.8688 21.0279 11.0515 20.9217 11.2083L12.6815 23.4999C12.5857 23.6413 12.4565 23.757 12.3054 23.8369C12.1542 23.9169 11.9857 23.9585 11.8146 23.9583ZM7.38642 13.3333H12.7441C12.8899 13.3336 13.0339 13.3644 13.167 13.4236C13.3001 13.4828 13.4193 13.5691 13.517 13.677C13.6155 13.7864 13.6897 13.9153 13.7347 14.0554C13.7798 14.1954 13.7945 14.3434 13.7781 14.4895L13.3081 18.8124L18.1018 11.6666H12.7441C12.5967 11.6675 12.4508 11.6373 12.316 11.5779C12.1812 11.5185 12.0605 11.4314 11.9618 11.3222C11.8632 11.213 11.7888 11.0842 11.7437 10.9443C11.6985 10.8043 11.6835 10.6565 11.6997 10.5104L12.1697 6.18744L7.38642 13.3333Z" fill="#F25822"/>
</svg>
