<svg width="265" height="44" viewBox="0 0 265 44" fill="none" xmlns="http://www.w3.org/2000/svg">
<path d="M59.48 15.648C58.712 15.648 57.952 15.76 57.2 15.984C56.448 16.192 55.712 16.448 54.992 16.752L53.84 13.824C54.688 13.456 55.584 13.168 56.528 12.96C57.472 12.736 58.48 12.624 59.552 12.624C62.08 12.624 64.04 13.4 65.432 14.952C66.824 16.488 67.52 18.656 67.52 21.456C67.52 23.216 67.224 24.76 66.632 26.088C66.04 27.4 65.128 28.424 63.896 29.16C62.68 29.88 61.12 30.24 59.216 30.24C58.24 30.24 57.352 30.168 56.552 30.024C55.768 29.88 54.968 29.656 54.152 29.352V26.304C55.064 26.592 55.904 26.816 56.672 26.976C57.456 27.136 58.232 27.216 59 27.216C60.472 27.216 61.608 26.856 62.408 26.136C63.208 25.4 63.64 24.304 63.704 22.848H56.264V19.872H63.68C63.632 18.544 63.232 17.512 62.48 16.776C61.728 16.024 60.728 15.648 59.48 15.648ZM79.3781 16.896H83.3141L78.1301 23.184L83.7701 30H79.7141L74.3621 23.352V30H70.7861V16.896H74.3621V23.256L79.3781 16.896ZM90.5047 30.24C88.5527 30.24 87.0407 29.704 85.9687 28.632C84.9127 27.544 84.3847 25.84 84.3847 23.52C84.3847 21.92 84.6567 20.616 85.2007 19.608C85.7447 18.6 86.4967 17.856 87.4567 17.376C88.4327 16.896 89.5527 16.656 90.8167 16.656C91.7127 16.656 92.4887 16.744 93.1447 16.92C93.8167 17.096 94.4007 17.304 94.8967 17.544L93.8407 20.304C93.2807 20.08 92.7527 19.896 92.2567 19.752C91.7767 19.608 91.2967 19.536 90.8167 19.536C88.9607 19.536 88.0327 20.856 88.0327 23.496C88.0327 24.808 88.2727 25.776 88.7527 26.4C89.2487 27.024 89.9367 27.336 90.8167 27.336C91.5687 27.336 92.2327 27.24 92.8087 27.048C93.3847 26.84 93.9447 26.56 94.4887 26.208V29.256C93.9447 29.608 93.3687 29.856 92.7607 30C92.1687 30.16 91.4167 30.24 90.5047 30.24ZM109.409 16.896V30H105.833V19.584H101.081V30H97.5048V16.896H109.409ZM118.561 16.656C120.369 16.656 121.801 17.176 122.857 18.216C123.913 19.24 124.441 20.704 124.441 22.608V24.336H115.993C116.025 25.344 116.321 26.136 116.881 26.712C117.457 27.288 118.249 27.576 119.257 27.576C120.105 27.576 120.873 27.496 121.561 27.336C122.249 27.16 122.961 26.896 123.697 26.544V29.304C123.057 29.624 122.377 29.856 121.657 30C120.953 30.16 120.097 30.24 119.089 30.24C117.777 30.24 116.617 30 115.609 29.52C114.601 29.024 113.809 28.28 113.233 27.288C112.657 26.296 112.369 25.048 112.369 23.544C112.369 22.008 112.625 20.736 113.137 19.728C113.665 18.704 114.393 17.936 115.321 17.424C116.249 16.912 117.329 16.656 118.561 16.656ZM118.585 19.2C117.897 19.2 117.321 19.424 116.857 19.872C116.409 20.32 116.145 21.016 116.065 21.96H121.081C121.065 21.16 120.857 20.504 120.457 19.992C120.057 19.464 119.433 19.2 118.585 19.2ZM134.637 16.656C136.109 16.656 137.301 17.232 138.213 18.384C139.125 19.52 139.581 21.2 139.581 23.424C139.581 25.648 139.109 27.344 138.165 28.512C137.221 29.664 136.013 30.24 134.541 30.24C133.597 30.24 132.845 30.072 132.285 29.736C131.725 29.384 131.269 28.992 130.917 28.56H130.725C130.853 29.232 130.917 29.872 130.917 30.48V35.76H127.341V16.896H130.245L130.749 18.6H130.917C131.269 18.072 131.741 17.616 132.333 17.232C132.925 16.848 133.693 16.656 134.637 16.656ZM133.485 19.512C132.557 19.512 131.901 19.8 131.517 20.376C131.149 20.952 130.949 21.832 130.917 23.016V23.4C130.917 24.664 131.101 25.64 131.469 26.328C131.853 27 132.541 27.336 133.533 27.336C134.349 27.336 134.949 27 135.333 26.328C135.733 25.64 135.933 24.656 135.933 23.376C135.933 20.8 135.117 19.512 133.485 19.512ZM153.142 19.584H148.846V30H145.27V19.584H140.974V16.896H153.142V19.584Z" fill="black"/>
<path d="M163.12 15.648C161.728 15.648 160.664 16.168 159.928 17.208C159.192 18.248 158.824 19.672 158.824 21.48C158.824 23.304 159.16 24.72 159.832 25.728C160.52 26.72 161.616 27.216 163.12 27.216C163.824 27.216 164.52 27.136 165.208 26.976C165.912 26.816 166.672 26.592 167.488 26.304V29.352C166.736 29.656 165.992 29.88 165.256 30.024C164.52 30.168 163.696 30.24 162.784 30.24C161.024 30.24 159.568 29.88 158.416 29.16C157.28 28.424 156.44 27.4 155.896 26.088C155.352 24.76 155.08 23.216 155.08 21.456C155.08 19.728 155.392 18.2 156.016 16.872C156.64 15.544 157.544 14.504 158.728 13.752C159.928 13 161.392 12.624 163.12 12.624C163.968 12.624 164.816 12.736 165.664 12.96C166.528 13.168 167.352 13.456 168.136 13.824L166.96 16.776C166.32 16.472 165.672 16.208 165.016 15.984C164.376 15.76 163.744 15.648 163.12 15.648ZM176.241 16.656C178.049 16.656 179.481 17.176 180.537 18.216C181.593 19.24 182.121 20.704 182.121 22.608V24.336H173.673C173.705 25.344 174.001 26.136 174.561 26.712C175.137 27.288 175.929 27.576 176.937 27.576C177.785 27.576 178.553 27.496 179.241 27.336C179.929 27.16 180.641 26.896 181.377 26.544V29.304C180.737 29.624 180.057 29.856 179.337 30C178.633 30.16 177.777 30.24 176.769 30.24C175.457 30.24 174.297 30 173.289 29.52C172.281 29.024 171.489 28.28 170.913 27.288C170.337 26.296 170.049 25.048 170.049 23.544C170.049 22.008 170.305 20.736 170.817 19.728C171.345 18.704 172.073 17.936 173.001 17.424C173.929 16.912 175.009 16.656 176.241 16.656ZM176.265 19.2C175.577 19.2 175.001 19.424 174.537 19.872C174.089 20.32 173.825 21.016 173.745 21.96H178.761C178.745 21.16 178.537 20.504 178.137 19.992C177.737 19.464 177.113 19.2 176.265 19.2Z" fill="#FF2255"/>
<path d="M192.316 16.656C193.788 16.656 194.98 17.232 195.892 18.384C196.804 19.52 197.26 21.2 197.26 23.424C197.26 25.648 196.788 27.344 195.844 28.512C194.9 29.664 193.692 30.24 192.22 30.24C191.276 30.24 190.524 30.072 189.964 29.736C189.404 29.384 188.948 28.992 188.596 28.56H188.404C188.532 29.232 188.596 29.872 188.596 30.48V35.76H185.02V16.896H187.924L188.428 18.6H188.596C188.948 18.072 189.42 17.616 190.012 17.232C190.604 16.848 191.372 16.656 192.316 16.656ZM191.164 19.512C190.236 19.512 189.58 19.8 189.196 20.376C188.828 20.952 188.628 21.832 188.596 23.016V23.4C188.596 24.664 188.78 25.64 189.148 26.328C189.532 27 190.22 27.336 191.212 27.336C192.028 27.336 192.628 27 193.012 26.328C193.412 25.64 193.612 24.656 193.612 23.376C193.612 20.8 192.796 19.512 191.164 19.512ZM211.824 20.328C211.824 21.032 211.6 21.632 211.152 22.128C210.72 22.624 210.072 22.944 209.208 23.088V23.184C210.12 23.296 210.848 23.608 211.392 24.12C211.952 24.632 212.232 25.288 212.232 26.088C212.232 26.84 212.032 27.512 211.632 28.104C211.248 28.696 210.632 29.16 209.784 29.496C208.936 29.832 207.824 30 206.448 30H200.208V16.896H206.448C207.472 16.896 208.384 17.008 209.184 17.232C210 17.44 210.64 17.792 211.104 18.288C211.584 18.784 211.824 19.464 211.824 20.328ZM208.2 20.616C208.2 19.816 207.568 19.416 206.304 19.416H203.784V22.008H205.896C206.648 22.008 207.216 21.904 207.6 21.696C208 21.472 208.2 21.112 208.2 20.616ZM208.536 25.896C208.536 25.384 208.336 25.016 207.936 24.792C207.536 24.552 206.936 24.432 206.136 24.432H203.784V27.528H206.208C206.88 27.528 207.432 27.408 207.864 27.168C208.312 26.912 208.536 26.488 208.536 25.896ZM218.758 22.08C218.758 22.352 218.742 22.688 218.71 23.088C218.694 23.488 218.67 23.896 218.638 24.312C218.622 24.728 218.598 25.096 218.566 25.416C218.534 25.736 218.51 25.96 218.494 26.088L224.542 16.896H228.838V30H225.382V24.768C225.382 24.336 225.398 23.864 225.43 23.352C225.462 22.824 225.494 22.336 225.526 21.888C225.574 21.424 225.606 21.072 225.622 20.832L219.598 30H215.302V16.896H218.758V22.08ZM237.903 30.24C235.951 30.24 234.439 29.704 233.367 28.632C232.311 27.544 231.783 25.84 231.783 23.52C231.783 21.92 232.055 20.616 232.599 19.608C233.143 18.6 233.895 17.856 234.855 17.376C235.831 16.896 236.951 16.656 238.215 16.656C239.111 16.656 239.887 16.744 240.543 16.92C241.215 17.096 241.799 17.304 242.295 17.544L241.239 20.304C240.679 20.08 240.151 19.896 239.655 19.752C239.175 19.608 238.695 19.536 238.215 19.536C236.359 19.536 235.431 20.856 235.431 23.496C235.431 24.808 235.671 25.776 236.151 26.4C236.647 27.024 237.335 27.336 238.215 27.336C238.967 27.336 239.631 27.24 240.207 27.048C240.783 26.84 241.343 26.56 241.887 26.208V29.256C241.343 29.608 240.767 29.856 240.159 30C239.567 30.16 238.815 30.24 237.903 30.24Z" fill="#F25822"/>
<g clip-path="url(#clip0)">
<path d="M30.815 12.8832L38.7951 23.0275L43.1373 19.2906L35.7725 9.72437L30.815 12.8832Z" fill="#F25822"/>
<path d="M13.9659 12.8772L5.20493 23.5506L0.862732 19.814L9.00833 9.72437L13.9659 12.8772Z" fill="#F25822"/>
<path d="M38.7951 23.0276L30.8149 12.8832H24.3549L19.3114 14.3395L13.9658 12.8772L5.2049 23.5506L9.53467 29.3853L9.07712 29.8431C8.22311 30.6968 8.22311 32.0809 9.07712 32.9349C9.81296 33.6707 10.9426 33.7718 11.7875 33.239L11.7838 33.3411C10.9301 34.1951 10.9301 35.5791 11.7838 36.4331C12.6341 37.2834 14.0105 37.2865 14.8651 36.4429L14.8641 36.4513C14.0101 37.3053 14.0101 38.6893 14.8641 39.5433C15.7178 40.397 17.1022 40.397 17.9559 39.5433L18.3748 39.1244L18.3728 39.1637C17.5188 40.0173 17.5188 41.4017 18.3728 42.2554C19.2265 43.1094 20.6109 43.1094 21.4645 42.2554L22.4844 41.2356C22.5962 41.1241 22.7382 40.9257 22.899 40.6646C22.7936 40.871 22.6556 41.0644 22.4844 41.2356L22.4787 41.2413L23.3109 41.9117C24.1649 42.7657 25.5489 42.7657 26.4029 41.9117C27.2566 41.058 27.2566 39.6736 26.4029 38.8199L26.406 38.8169C27.2596 39.6706 28.644 39.6706 29.4977 38.8169C30.3517 37.9629 30.3517 36.5788 29.4977 35.7248L29.501 35.7218C30.3547 36.5755 31.7391 36.5755 32.5928 35.7218C33.4464 34.8681 33.4464 33.4837 32.5928 32.6301L32.5958 32.6267C33.4498 33.4807 34.8339 33.4807 35.6879 32.6267C36.5415 31.773 36.5415 30.389 35.6879 29.535L38.7951 23.0276Z" fill="#FCC89D"/>
<path d="M43.8207 18.7652L36.4563 9.19865C36.1837 8.84483 35.6865 8.75755 35.3096 8.99724L30.5548 12.0212H24.3535C24.2733 12.0212 24.1934 12.0383 24.1162 12.0608L19.3081 13.4448L14.319 12.0802L9.47124 8.99724C9.10064 8.76158 8.61254 8.84147 8.33693 9.18321L0.191334 19.2728C-0.101391 19.6354 -0.0530509 20.1648 0.300099 20.4686L4.56945 24.1427L8.39971 29.3043C7.2795 30.4977 7.30132 32.38 8.46685 33.5458C8.98348 34.0621 9.64043 34.3538 10.3162 34.4217C10.2927 34.5747 10.2806 34.7302 10.2806 34.8879C10.2806 35.7023 10.5978 36.468 11.1735 37.0438C11.7496 37.6198 12.5153 37.937 13.3297 37.937C13.3408 37.937 13.3515 37.9364 13.3623 37.936C13.3619 37.9568 13.3609 37.9773 13.3609 37.9981C13.3609 38.8125 13.6782 39.5782 14.2539 40.1543C14.8299 40.73 15.5956 41.0472 16.41 41.0472C16.5708 41.0472 16.7299 41.0341 16.886 41.01C16.9522 41.6881 17.2446 42.348 17.7629 42.8664C18.357 43.4609 19.1379 43.758 19.9187 43.758C20.6995 43.758 21.4803 43.4609 22.0749 42.8664L22.5411 42.4001L22.7368 42.5579C23.3263 43.1289 24.0917 43.4142 24.8571 43.4142C25.6379 43.4142 26.4187 43.1171 27.0129 42.5226C27.6195 41.916 27.9166 41.1154 27.9042 40.3188C28.7004 40.3309 29.5014 40.0341 30.108 39.4279C30.7139 38.8216 31.011 38.0216 30.9993 37.2254C31.8288 37.2385 32.6156 36.9199 33.2028 36.3328C33.8093 35.7262 34.1064 34.9255 34.094 34.1289C34.891 34.141 35.6912 33.8443 36.2978 33.2377C37.3331 32.2024 37.4664 30.6021 36.6987 29.4208L39.4953 23.5636L43.6999 19.9455C44.0473 19.6464 44.1004 19.1281 43.8207 18.7652ZM9.1953 10.8667L12.6811 13.0833L5.09816 22.3216L2.05947 19.7062L9.1953 10.8667ZM9.68709 30.4538L10.7392 29.4017C10.771 29.3698 10.8046 29.3396 10.8389 29.3114C11.0446 29.1435 11.2937 29.0435 11.5576 29.0197C11.565 29.019 11.5727 29.019 11.5801 29.0187C11.6177 29.0156 11.6553 29.0136 11.6932 29.014C12.0537 29.019 12.3888 29.1664 12.6372 29.4285C13.1246 29.9438 13.0984 30.7858 12.5788 31.3054L11.5586 32.3256C11.0426 32.8415 10.2031 32.8415 9.68709 32.3256C9.17113 31.8093 9.17113 30.9697 9.68709 30.4538ZM12.3938 35.8235C12.1437 35.5738 12.0061 35.2414 12.0061 34.8879C12.0061 34.5344 12.1437 34.2021 12.3938 33.952L14.4338 31.912C14.8245 31.5213 15.4389 31.4142 15.9384 31.6522C16.4533 31.8976 16.743 32.4565 16.6675 33.0188C16.6272 33.3189 16.4876 33.6016 16.2734 33.8161L14.2656 35.8235C14.0155 36.0736 13.6832 36.2112 13.3297 36.2112C12.9762 36.2112 12.6439 36.0736 12.3938 35.8235ZM15.4741 38.9337C15.224 38.684 15.0864 38.3516 15.0864 37.9981C15.0864 37.6446 15.224 37.3123 15.4741 37.0622L17.5138 35.0222C17.9317 34.6046 18.6021 34.5146 19.1137 34.8124C19.581 35.0843 19.8257 35.6181 19.7455 36.1498C19.7015 36.4422 19.5625 36.7171 19.3534 36.9263L17.3459 38.9337C17.0958 39.1838 16.7635 39.3214 16.41 39.3214C16.0565 39.3214 15.7242 39.1838 15.4741 38.9337ZM18.9828 41.6461C18.4668 41.1302 18.4668 40.2906 18.9828 39.7746L20.0348 38.7226C20.0667 38.6907 20.1 38.6608 20.1342 38.6326C20.1352 38.6319 20.1359 38.6313 20.1366 38.6306C20.3078 38.4916 20.5088 38.3986 20.7233 38.358C20.7284 38.3573 20.7334 38.3567 20.7385 38.356C20.7754 38.3493 20.813 38.3439 20.8506 38.3405C20.8657 38.3392 20.8808 38.3392 20.8962 38.3382C20.9271 38.3365 20.9577 38.3345 20.9889 38.3348C21.3491 38.3399 21.6844 38.4869 21.9329 38.7494C21.9634 38.7816 21.9919 38.8152 22.0181 38.8498C22.4149 39.3684 22.3615 40.1388 21.8691 40.6316L20.8543 41.6465C20.3383 42.1624 19.4987 42.1621 18.9828 41.6461ZM35.0776 32.0174C34.5616 32.5337 33.7221 32.5334 33.2061 32.0174C33.1873 31.9986 33.1675 31.9812 33.1474 31.9647L27.5997 26.3586C27.2643 26.0199 26.7182 26.0172 26.3794 26.3526C26.0407 26.6876 26.038 27.2338 26.3731 27.5725L31.9808 33.2387C31.9815 33.2393 31.9822 33.24 31.9828 33.2407C32.4988 33.7566 32.4988 34.5965 31.9828 35.1125C31.7327 35.3626 31.4004 35.5002 31.0469 35.5002C30.6931 35.5002 30.3608 35.3626 30.111 35.1125L26.3596 31.3222C26.0246 30.9835 25.4784 30.9808 25.1397 31.3158C24.801 31.6512 24.7983 32.1973 25.1334 32.5361L28.8273 36.2683C28.8461 36.2918 28.8663 36.3143 28.8877 36.3358C29.4037 36.8517 29.4037 37.6916 28.8877 38.2076C28.3715 38.7236 27.5315 38.7232 27.0156 38.2073L24.9682 36.1384C24.6328 35.7997 24.0867 35.7967 23.7479 36.132C23.4092 36.467 23.4065 37.0132 23.7416 37.3519L25.7319 39.3627C25.7507 39.3862 25.7708 39.4091 25.7927 39.4305C26.3086 39.9465 26.3086 40.7864 25.7927 41.3024C25.2767 41.8187 24.4371 41.8183 23.9212 41.3024C23.8617 41.2429 23.7919 41.1973 23.7255 41.1463C23.6691 41.1033 23.6543 41.0734 23.6825 41.0049C23.711 40.9355 23.7537 40.8727 23.7822 40.8029C23.8137 40.725 23.8393 40.6447 23.8641 40.5642C23.9964 40.1378 24.0353 39.6793 23.9759 39.2368C23.8617 38.3879 23.3948 37.6218 22.6872 37.1371C22.3048 36.8756 21.8624 36.704 21.4038 36.6396C21.626 35.6594 21.3592 34.5965 20.6649 33.8631C20.0936 33.2595 19.3218 32.9208 18.4917 32.9094C18.4614 32.909 18.4312 32.909 18.4007 32.9094C18.4191 32.1171 18.1311 31.3299 17.585 30.7529C17.0133 30.1493 16.2415 29.8106 15.4117 29.7992C15.1649 29.7958 14.9159 29.822 14.6755 29.8774C14.5728 29.1627 14.2126 28.5014 13.6671 28.0284C13.1249 27.5591 12.4431 27.2986 11.717 27.2885C10.9527 27.2774 10.2017 27.5594 9.63405 28.072L6.29894 23.5781L14.2777 13.8577L16.8206 14.5533L13.4996 20.4135C13.0981 21.1221 12.9967 21.9446 13.2139 22.7294C13.4311 23.5146 13.9407 24.1679 14.6493 24.5694C14.6936 24.5946 14.7383 24.6184 14.7836 24.6412C14.7869 24.6429 14.7903 24.6446 14.794 24.6463C14.9132 24.7057 15.0357 24.7567 15.1599 24.7997C15.7383 25.0001 16.363 25.0219 16.9656 24.8554C17.7504 24.6382 18.4037 24.1283 18.8052 23.42L20.9634 19.6115L24.8168 19.8848L35.0779 30.1456C35.5936 30.6619 35.5936 31.5015 35.0776 32.0174ZM35.4351 28.0626L25.8091 18.4369C25.791 18.4185 25.7718 18.401 25.752 18.3846C25.6134 18.2691 25.4415 18.1993 25.2602 18.1865L20.5421 17.8518C20.2158 17.8293 19.8915 18.0029 19.7304 18.2872L17.304 22.5693C17.1298 22.8768 16.8461 23.098 16.5054 23.1924C16.165 23.2867 15.8078 23.2424 15.5 23.0682C15.1925 22.8939 14.9712 22.6103 14.8769 22.2695C14.7826 21.9288 14.8266 21.5716 15.0011 21.2641L18.2402 15.5476L19.5528 15.17C19.5615 15.1673 19.5699 15.1639 19.5786 15.1612L24.4774 13.7466H30.3964L37.7856 23.14L35.4351 28.0626ZM38.9159 21.7858L32.0825 13.0944L35.5701 10.8764L41.9553 19.1704L38.9159 21.7858Z" fill="black"/>
<path d="M26.6564 10.401C26.8773 10.401 27.0981 10.3167 27.2667 10.1482L33.1601 4.25476C33.4971 3.91772 33.4971 3.37155 33.1601 3.03452C32.8231 2.69748 32.2769 2.69748 31.9399 3.03452L26.0464 8.92795C25.7094 9.26498 25.7094 9.81116 26.0464 10.1482C26.2149 10.3167 26.4358 10.401 26.6564 10.401Z" fill="black"/>
<path d="M16.7333 10.1482C16.9018 10.3167 17.1227 10.401 17.3436 10.401C17.5642 10.401 17.785 10.3167 17.9536 10.1482C18.2906 9.81116 18.2906 9.26498 17.9536 8.92795L12.0601 3.03452C11.7231 2.69748 11.1769 2.69748 10.8399 3.03452C10.5028 3.37155 10.5028 3.91772 10.8399 4.25476L16.7333 10.1482Z" fill="black"/>
<path d="M22 10.4011C22.4764 10.4011 22.8627 10.0147 22.8627 9.53836V4.66107C22.8627 4.18472 22.4764 3.79834 22 3.79834C21.5237 3.79834 21.1373 4.18472 21.1373 4.66107V9.53836C21.1373 10.0147 21.5237 10.4011 22 10.4011Z" fill="black"/>
<path d="M21.2037 1.53411C21.3407 1.86611 21.6821 2.08398 22.0423 2.06518C22.3981 2.04672 22.7107 1.80636 22.8208 1.46764C22.9312 1.12624 22.8111 0.737175 22.525 0.519646C22.2333 0.297417 21.8265 0.284996 21.5213 0.486748C21.1809 0.711663 21.049 1.15948 21.2037 1.53411Z" fill="black"/>
</g>
<defs>
<clipPath id="clip0">
<rect width="44" height="44" fill="white"/>
</clipPath>
</defs>
</svg>
