<svg width="26" height="25" viewBox="0 0 26 25" fill="none" xmlns="http://www.w3.org/2000/svg">
<path d="M13.5039 22.9167C12.9996 22.9162 12.5157 22.7179 12.1567 22.3646L5.46216 15.6771C5.29037 15.5068 5.1833 15.2822 5.15929 15.0417L4.24023 5.30215C4.22616 5.14958 4.24601 4.99579 4.29836 4.85175C4.35071 4.7077 4.43428 4.57695 4.5431 4.46881C4.65152 4.36028 4.78261 4.27693 4.92703 4.22471C5.07145 4.1725 5.22564 4.1527 5.37861 4.16673L15.1436 5.0834C15.3847 5.10735 15.6099 5.21414 15.7807 5.38548L22.4857 12.0626C22.8409 12.4179 23.0404 12.8993 23.0404 13.4011C23.0404 13.9029 22.8409 14.3843 22.4857 14.7396L14.8408 22.3646C14.4855 22.7173 14.0051 22.9157 13.5039 22.9167ZM7.23762 14.4688L13.5039 20.7188L20.8669 13.3751L14.6005 7.12506L6.44388 6.36465L7.23762 14.4688Z" fill="#F25822"/>
<path d="M11.0287 12.5C11.8939 12.5 12.5953 11.8004 12.5953 10.9375C12.5953 10.0746 11.8939 9.375 11.0287 9.375C10.1635 9.375 9.46216 10.0746 9.46216 10.9375C9.46216 11.8004 10.1635 12.5 11.0287 12.5Z" fill="#F25822"/>
</svg>
