<svg width="28" height="25" viewBox="0 0 28 25" fill="none" xmlns="http://www.w3.org/2000/svg">
<path d="M2.84246 2.77778V22.2222H25.1227V2.77778H2.84246ZM1.44995 0H26.5152C26.8845 0 27.2387 0.146329 27.4999 0.406796C27.761 0.667263 27.9077 1.02053 27.9077 1.38889V23.6111C27.9077 23.9795 27.761 24.3327 27.4999 24.5932C27.2387 24.8537 26.8845 25 26.5152 25H1.44995C1.08063 25 0.72644 24.8537 0.465292 24.5932C0.204145 24.3327 0.0574341 23.9795 0.0574341 23.6111V1.38889C0.0574341 1.02053 0.204145 0.667263 0.465292 0.406796C0.72644 0.146329 1.08063 0 1.44995 0ZM17.8719 9.43472L15.3751 6.94444H22.3377V13.8889L19.8409 11.3986L14.4602 16.7653L11.5067 13.8194L7.56727 17.7472L5.59825 15.7833L11.5067 9.89028L14.4602 12.8375L17.8719 9.43472Z" fill="#F25822"/>
</svg>
